<?xml version="1.0" encoding="utf-8"?>
<!-- Generator: Adobe Illustrator 19.2.1, SVG Export Plug-In . SVG Version: 6.00 Build 0)  -->
<svg version="1.1" id="Layer_1" xmlns="http://www.w3.org/2000/svg" xmlns:xlink="http://www.w3.org/1999/xlink" x="0px" y="0px"
	 viewBox="0 0 200 200" enable-background="new 0 0 200 200" xml:space="preserve">
<path opacity="0.4" fill="#FFFFFF" d="M100.3,62.3c-20.3,0-36.8,16.5-36.8,36.8c0,20.3,16.5,36.7,36.8,36.7
	c20.3,0,36.7-16.4,36.7-36.7C137,78.8,120.6,62.3,100.3,62.3z M118,101.4l-21.8,15.9c-0.5,0.3-1,0.5-1.5,0.5c-0.4,0-0.8-0.1-1.2-0.3
	c-0.9-0.4-1.4-1.4-1.4-2.3V83.4c0-1,0.6-1.9,1.4-2.3c0.9-0.4,1.9-0.4,2.7,0.2L118,97.2c0.7,0.5,1.1,1.3,1.1,2.1
	S118.7,100.9,118,101.4z"/>
</svg>
